# xmcd
#
# Track frame offsets:
#	150
#	18167
#	31737
#	51040
#	67797
#	84677
#	104332
#	119392
#	139657
#	157210
#	176597
#	198087
#
# Disc length: 2845 seconds
#
# Revision: 2
# Processed by: cddbd v1.4PL0 Copyright (c) Steve Scherf et al.
# Submitted via: audiograbber 1.81.03
#
DISCID=950b1b0c
DTITLE=Larry Miller - Man On A Mission
DYEAR=2000
DGENRE=Blues
TTITLE0=Made In Heaven
TTITLE1=Man On A Mission
TTITLE2=When Will You Miss Me Too
TTITLE3=You're Not Hurting Me
TTITLE4=Sold Down River
TTITLE5=Yellow Roses
TTITLE6=Bad Bad Mama
TTITLE7=Life Isn't Life Without You
TTITLE8=How Can A Man Resist
TTITLE9=Babes In Magazines
TTITLE10=Soul In Chains
TTITLE11=(I Ain't Gonna) Bite No Dust
EXTD=
EXTT0=
EXTT1=
EXTT2=
EXTT3=
EXTT4=
EXTT5=
EXTT6=
EXTT7=
EXTT8=
EXTT9=
EXTT10=
EXTT11=
PLAYORDER=
